PathFileType	4	(X/Y/Z)	C:\Users\Basilio\Documents\Thesis Gigler\squatting_fais\c3dfiles\044\SJ_pre3\markers_experimental.trc
DataRate	CameraRate	NumFrames	NumMarkers	Units	OrigDataRate	OrigDataStartFrame	OrigNumFrames
200.000000	200.000000	4	63	mm	200.000000	713	1427
Frame#	Time	FHD			LBHD			RBHD			C7			T10			CLAV			LSHO			LUUPA			LMUPA			LDUPA			LLEP			LMEP			LRAD			LUL			LRFIN			RSHO			RUPA1			RMUPA			RDUPA			RLEP			RMEP			RRAD			RUL			RUFIN			RASI			USACR			LSACR			RSACR			LTHI1			LTHI2			LTHI3			LTHI4			LLFC			LMFC			LTIB1			LTIB2			LTIB3			LTIB4			LLMAL			LMMAL			LHEE			LMT1			LMT2			LMT5			RTHI			RTHI2			RTHI3			RTHI4			RLFC			RMFC			RTIB1			RTIB2			RTIB3			RTIB4			RLMAL			RMMAL			RHEE			RMT1			RMT2			RMT5			LASI			*61			*62			
		X1	Y1	Z1	X2	Y2	Z2	X3	Y3	Z3	X4	Y4	Z4	X5	Y5	Z5	X6	Y6	Z6	X7	Y7	Z7	X8	Y8	Z8	X9	Y9	Z9	X10	Y10	Z10	X11	Y11	Z11	X12	Y12	Z12	X13	Y13	Z13	X14	Y14	Z14	X15	Y15	Z15	X16	Y16	Z16	X17	Y17	Z17	X18	Y18	Z18	X19	Y19	Z19	X20	Y20	Z20	X21	Y21	Z21	X22	Y22	Z22	X23	Y23	Z23	X24	Y24	Z24	X25	Y25	Z25	X26	Y26	Z26	X27	Y27	Z27	X28	Y28	Z28	X29	Y29	Z29	X30	Y30	Z30	X31	Y31	Z31	X32	Y32	Z32	X33	Y33	Z33	X34	Y34	Z34	X35	Y35	Z35	X36	Y36	Z36	X37	Y37	Z37	X38	Y38	Z38	X39	Y39	Z39	X40	Y40	Z40	X41	Y41	Z41	X42	Y42	Z42	X43	Y43	Z43	X44	Y44	Z44	X45	Y45	Z45	X46	Y46	Z46	X47	Y47	Z47	X48	Y48	Z48	X49	Y49	Z49	X50	Y50	Z50	X51	Y51	Z51	X52	Y52	Z52	X53	Y53	Z53	X54	Y54	Z54	X55	Y55	Z55	X56	Y56	Z56	X57	Y57	Z57	X58	Y58	Z58	X59	Y59	Z59	X60	Y60	Z60	X61	Y61	Z61	X62	Y62	Z62	X63	Y63	Z63	

714	3.565	157.9313659667969	1122.102416992188	-952.6838378906252	13.28381156921387	1104.056030273438	-1011.502502441406	-10.45834636688233	1093.142456054688	-846.8413696289065	-96.51895904541018	1007.472839355469	-932.023864746094	-339.6574096679688	834.5416259765627	-909.6120605468752	-22.59069252014161	873.5464477539065	-933.228454589844	-35.14899063110352	933.6119384765627	-1105.760864257813	-208.1649780273438	880.6233520507815	-1254.357666015625	-224.5143127441407	835.9893188476565	-1242.51416015625	-265.4636535644532	853.8325805664065	-1283.59521484375	-315.4526062011719	819.8540039062502	-1293.906616210938	-358.3067016601563	879.5771484375002	-1249.809692382813	-475.3145141601564	665.6214599609376	-1114.985595703125	-448.2226562500001	622.1380004882814	-1161.814453125	-422.5162658691407	650.5983276367189	-1072.927368164063	-24.49342346191407	932.7015380859377	-748.1365966796876	-161.8934173583985	875.1685791015627	-579.0983276367189	-176.7252960205078	827.7904052734377	-586.4862670898439	-210.3301086425782	842.6693115234377	-539.3457031250001	-255.3838043212891	802.7634277343752	-520.7593994140626	-315.8804321289063	861.6442871093752	-549.3300781250001	-446.9020080566407	647.3881835937501	-660.6234741210939	-406.9239196777345	602.8190307617189	-617.7445068359376	-394.0090332031251	641.7390747070314	-711.3837280273439	-360.8511047363282	592.7322998046876	-787.0618896484377	-465.1454467773439	720.2442626953126	-893.0229492187502	-495.9793395996095	701.8354492187501	-915.9434814453127	-488.7193908691407	702.8389892578126	-861.219421386719	-383.2377929687501	515.0704956054689	-1124.358642578125	-300.1737670898438	517.0999755859376	-1146.7470703125	-279.3016662597657	557.6231079101564	-1135.1728515625	-262.5249328613282	471.7044677734376	-1156.721923828125	-124.7646408081055	417.739959716797	-1170.680541992188	-109.432357788086	406.3817749023439	-1057.734375	-166.1968994140625	264.0101623535157	-1083.483154296875	-221.0480499267579	233.2385711669922	-1148.799926757813	-193.6824951171876	217.7180633544922	-1113.289428710938	-249.2548065185547	166.7103424072266	-1073.955932617188	-358.9835510253907	91.7928924560547	-1111.244018554688	-332.9395141601563	100.6073379516602	-1027.137329101563	-425.4587402343751	51.10937500000001	-1060.980102539063	-208.2316436767579	60.45418930053712	-1057.248779296875	-213.4574279785157	62.76192092895509	-1103.723754882813	-250.6988372802735	39.6628532409668	-1148.13623046875	-310.7552185058594	476.0172729492189	-692.1196289062501	-244.4148712158204	494.0647277832032	-688.5096435546876	-232.3074493408204	523.4898071289064	-697.1056518554689	-181.0960693359375	437.7083740234376	-697.3758544921876	-108.5413665771485	392.169891357422	-708.4620971679689	-108.0649032592774	391.7951049804689	-829.2637939453127	-124.0011291503907	268.8434753417969	-749.3380737304689	-224.5648193359376	253.8637084960938	-701.3681640625001	-195.8506164550782	225.0259246826172	-722.8236694335939	-222.9080963134766	183.320556640625	-752.9111938476564	-368.5232238769532	94.84415435791017	-736.6459960937501	-345.0906066894532	99.23574066162112	-823.4824829101565	-433.2186584472657	51.78386306762697	-787.5007934570315	-219.8878479003907	61.1312599182129	-789.2475585937502	-216.6618347167969	59.600154876709	-750.8649291992189	-257.2560729980469	41.18819808959962	-700.6181640625001	-366.4840698242188	594.8131713867189	-1015.900329589844	nan	nan	nan	nan	nan	nan	
715	3.57	157.8599548339844	1122.234252929688	-952.6409301757815	13.18878364562989	1104.159057617188	-1011.537780761719	-10.54581546783447	1093.20751953125	-846.8183593750002	-96.54847717285159	1007.469909667969	-932.068786621094	-339.7261657714844	834.558044433594	-909.6121215820315	-22.59962272644043	873.5915527343752	-933.2256469726565	-35.20006942749024	933.6384277343752	-1105.7890625	-208.1766510009766	880.6243286132815	-1254.395629882813	-224.5120697021485	835.8974609375002	-1242.594360351563	-265.3402709960938	853.8776855468752	-1283.665283203125	-315.3116455078126	819.846130371094	-1293.971435546875	-358.2586364746094	879.5729980468752	-1249.938842773438	-475.3109130859376	665.5971679687501	-1115.089477539063	-448.2062072753907	622.0441894531251	-1161.90771484375	-422.5100097656251	650.5194702148439	-1073.0146484375	-24.57397270202637	932.7304687500002	-748.2028808593751	-161.9148254394532	875.1712646484377	-579.1145019531251	-176.7376708984375	827.8054809570315	-586.5269165039064	-210.3233337402344	842.6099243164065	-539.3398437500001	-255.3868103027344	802.7672119140627	-520.7609252929689	-315.8988647460938	861.6350097656252	-549.3313598632814	-446.8415832519532	647.3411254882814	-660.6765136718751	-406.9525756835939	602.7985229492189	-617.7608032226564	-394.0545959472657	641.8053588867189	-711.4293212890626	-360.7507934570313	592.9007568359376	-787.0045166015627	-465.0937805175782	720.2741699218751	-893.103698730469	-495.9786987304689	701.7783813476564	-915.9287719726565	-488.7186889648439	702.8414916992189	-861.2639770507815	-383.2890014648438	515.1055297851564	-1124.39404296875	-300.2111816406251	517.0557861328126	-1146.765258789063	-279.3190307617188	557.5762939453126	-1135.139526367188	-262.5235900878907	471.7054443359376	-1156.72509765625	-124.6650543212891	417.7322082519532	-1170.7021484375	-109.4317169189453	406.3799438476564	-1057.734375	-166.1577453613282	264.0233764648438	-1083.452880859375	-220.9745330810547	233.1931915283204	-1148.816162109375	-193.556869506836	217.6647186279297	-1113.253662109375	-249.2370758056641	166.7135162353516	-1073.937866210938	-358.9103088378907	92.07128143310548	-1111.143798828125	-332.9636535644532	100.5673294067383	-1027.146850585938	-425.013153076172	50.44559860229494	-1061.353393554688	-208.2294921875001	60.45034027099611	-1057.156494140625	-213.442611694336	62.72945404052736	-1103.723754882813	-250.6704254150391	39.70057678222657	-1148.11865234375	-310.7489624023438	475.9928283691407	-692.1789550781251	-244.3684997558594	494.0689697265626	-688.5249633789064	-232.3443145751954	523.4523315429689	-697.1179809570314	-181.1218414306641	437.7615966796876	-697.4614257812501	-108.5293273925782	392.1527709960939	-708.5242919921876	-107.9584655761719	391.8744201660157	-829.3406372070315	-124.1985778808594	269.0588989257813	-749.4052734375001	-224.5151519775391	253.8331756591797	-701.3695678710939	-195.7594909667969	224.9780731201172	-722.7691040039064	-222.9188079833985	183.3352203369141	-752.9077148437501	-368.6444702148438	94.7355422973633	-736.7011718750001	-345.1025695800782	99.2118835449219	-823.5041503906252	-433.3364257812501	51.98223876953126	-787.5159912109377	-219.9355010986329	61.04501342773439	-789.327331542969	-216.641098022461	59.56571578979494	-750.8071899414064	-257.2832336425782	41.20806884765626	-700.6535644531251	-366.4702758789063	594.6569213867189	-1015.783874511719	nan	nan	nan	nan	nan	nan	
716	3.575	157.8148498535157	1122.2705078125	-952.6846923828127	13.17800235748291	1104.2060546875	-1011.590393066406	-10.6956729888916	1093.324462890625	-846.859802246094	-96.67472076416018	1007.556213378906	-932.0985107421877	-339.7302551269532	834.516540527344	-909.6507568359377	-22.58256340026856	873.6384887695315	-933.2053833007815	-35.29876708984376	933.6712646484377	-1105.776245117188	-208.1427154541016	880.6492919921877	-1254.425659179688	-224.4729461669922	835.9043579101565	-1242.608276367188	-265.2312011718751	853.9443359375002	-1283.795288085938	-315.3136291503907	819.7998657226565	-1294.0498046875	-358.2338867187501	879.5037231445315	-1249.992065429688	-475.2765197753907	665.5039062500001	-1115.161499023438	-448.1762695312501	621.9771118164064	-1161.968383789063	-422.4805603027345	650.3970336914064	-1073.147094726563	-24.50728988647462	932.9068603515627	-748.2218627929689	-161.902328491211	875.166687011719	-579.1260375976564	-176.7747497558594	827.7943115234377	-586.5572509765626	-210.3281402587891	842.5889892578127	-539.3592529296876	-255.3523254394532	802.736755371094	-520.7468261718751	-315.9165039062501	861.540466308594	-549.3016357421876	-446.8038635253907	647.3147583007814	-660.6959228515626	-406.9566650390626	602.7742309570314	-617.7888793945314	-394.0363159179689	641.7958374023439	-711.5059814453126	-360.9586181640626	592.4345703125001	-787.3813476562502	-465.1282043457032	720.2323608398439	-893.1417236328127	-496.0845947265626	701.8481445312501	-915.991394042969	-488.7298889160157	702.8159790039064	-861.2646484375002	-383.1975402832032	515.0271606445314	-1124.366088867188	-300.0618896484376	517.0291748046876	-1146.842529296875	-279.2981567382813	557.5249023437501	-1135.188232421875	-262.5122375488282	471.630340576172	-1156.676513671875	-124.8027114868164	417.6874389648439	-1170.642456054688	-109.4323654174805	406.381805419922	-1057.734375	-166.1400756835938	264.0323486328126	-1083.445678710938	-221.0071868896485	233.1885833740235	-1148.785034179688	-193.5554962158204	217.6576538085938	-1113.253784179688	-249.2458190917969	166.6893310546875	-1073.960083007813	-359.0014953613282	91.7747268676758	-1111.22119140625	-332.9157409667969	100.5718460083008	-1027.075927734375	-424.9492492675782	50.40607070922853	-1061.335205078125	-208.2293548583985	60.43070220947267	-1057.199951171875	-213.4619293212891	62.74702835083009	-1103.73388671875	-250.1490325927735	40.02484512329102	-1147.878295898438	-310.7424926757813	475.981414794922	-692.1659545898439	-244.3611450195313	494.1311035156251	-688.6731567382814	-232.3587799072266	523.4819946289064	-697.2099609375001	-181.0906372070313	437.8008422851564	-697.4896240234376	-108.4621124267578	392.1240234375001	-708.6032714843751	-107.8349380493164	391.8033752441407	-829.434997558594	-124.2150344848633	268.9791259765626	-749.3726806640626	-224.4567871093751	253.8333587646485	-701.4183349609376	-195.7538452148438	224.9619293212891	-722.7682495117189	-222.8649139404297	183.2962341308594	-752.9255981445314	-368.5217285156251	94.80274963378908	-736.6660156250001	-345.1113891601563	99.22673034667972	-823.4954223632815	-433.3189392089845	51.92458724975587	-787.5183105468752	-220.1855468750001	61.4149742126465	-788.5338134765627	-216.6558837890626	59.59976959228517	-750.8577270507814	-257.2990417480469	41.20730590820313	-700.6075439453126	-366.9924621582032	594.5015869140626	-1016.090881347656	nan	nan	nan	nan	nan	nan	
717	3.58	157.8109436035157	1122.282104492188	-952.6817016601565	13.12332916259766	1104.294189453125	-1011.565490722656	-10.90878295898438	1093.405029296875	-846.8665161132815	-96.77420043945315	1007.644592285156	-932.056091308594	-339.7228698730469	834.4797363281252	-909.739685058594	-22.64740180969239	873.822448730469	-933.2864379882815	-35.18882751464844	933.6994628906252	-1105.86328125	-208.1570587158204	880.6368408203127	-1254.475952148438	-224.4646606445313	835.8706665039065	-1242.706298828125	-265.2854309082032	853.8057861328127	-1283.806396484375	-315.3122558593751	819.7171020507815	-1294.125244140625	-358.2276611328126	879.4165039062502	-1250.07861328125	-475.2808532714845	665.4989624023439	-1115.233642578125	-448.1419982910157	621.8948974609376	-1162.082641601563	-422.4937133789064	650.3776855468751	-1073.18408203125	-24.55579185485841	932.943542480469	-748.2278442382814	-161.9028015136719	875.1276855468752	-579.1317138671876	-176.7334594726563	827.7637939453127	-586.5704956054689	-210.3356170654297	842.5881958007815	-539.3818359375001	-255.3438262939454	802.6781005859377	-520.7547607421876	-315.8819885253907	861.601257324219	-549.2514038085939	-446.8521728515626	647.3064575195314	-660.7652587890626	-406.9499816894532	602.7631835937501	-617.7627563476564	-393.9255371093751	641.7202758789064	-711.4715576171876	-360.6228637695313	593.1268310546876	-786.9749755859377	-465.239471435547	720.1883544921876	-893.1397094726565	-496.0288696289064	701.6417236328126	-916.0566406250002	-488.7195434570314	702.7973632812501	-861.3433227539065	-383.1572570800782	515.0650634765626	-1124.43408203125	-300.0461425781251	516.9794921875001	-1146.885620117188	-279.3130798339844	557.5457763671876	-1135.19287109375	-262.4661254882813	471.5604553222657	-1156.692626953125	-124.7909240722657	417.7737426757814	-1170.625244140625	-109.4336318969727	406.3133239746095	-1057.734252929688	-166.079574584961	263.9642333984376	-1083.457763671875	-221.0056762695313	233.1876983642579	-1148.785888671875	-193.4939727783204	217.5454864501954	-1113.232055664063	-249.2095184326172	166.6256408691407	-1073.859741210938	-359.0259704589844	91.78475189208986	-1111.1953125	-333.4846191406251	101.1507797241211	-1027.081420898438	-424.9945068359376	50.4393653869629	-1061.305541992188	-208.1326751708985	60.00080871582033	-1056.8349609375	-213.4690704345704	62.74233245849611	-1103.727783203125	-250.6545104980469	39.68568801879884	-1148.145629882813	-310.6976318359376	475.8995971679689	-692.1754150390626	-244.3031158447266	494.1035461425782	-688.7219238281251	-232.3052368164063	523.4201049804689	-697.2098999023439	-181.0956420898438	437.8303222656251	-697.5534667968751	-108.3865661621094	392.1361083984376	-708.7480468750001	-107.8388137817383	391.8363342285157	-829.4355468750002	-124.1958160400391	268.9704895019532	-749.3906860351564	-224.4719696044922	253.8577728271485	-701.4617309570314	-195.8155822753907	225.0514068603516	-722.9051513671876	-222.857162475586	183.2865447998047	-752.9335327148439	-368.6050720214844	94.70995330810548	-736.6536865234376	-345.1084289550782	99.21272277832034	-823.509704589844	-433.3704833984376	52.0176239013672	-787.576110839844	-219.8622283935547	61.00820159912111	-789.3826293945315	-216.7038116455079	59.60589599609376	-750.8784179687501	-257.3052368164063	41.19419860839844	-700.6188964843751	-366.3164672851563	594.5936279296876	-1015.638671875	nan	nan	nan	nan	nan	nan	
